<svg xmlns="http://www.w3.org/2000/svg" viewBox="0 0 46 22"><path fill="currentColor" d="M46 11c0-6.065-5.02-11-11.181-11-2.569 0-5.365 1.334-8.328 3.963-1.4 1.243-2.615 2.573-3.527 3.642C19.76 3.992 15.466 0 11.18 0 6 0 1.482 3.633.307 8.447l.004-.015A10.74 10.74 0 0 0 0 11c0 6.065 4.94 11 11.1 11 2.569 0 5.445-1.334 8.408-3.963 1.4-1.243 2.616-2.573 3.527-3.642C26.238 18.008 30.534 22 34.82 22c5.18 0 9.698-3.633 10.873-8.447.2-.82.307-1.675.307-2.552V11ZM23.822 7.594a35.255 35.255 0 0 1 3.09-3.144C29.756 1.927 32.416.647 34.819.647 40.632.647 45.36 5.291 45.36 11c0 .8-.095 1.6-.283 2.379-.03.09-.418 1.164-1.521 2.208-1.434 1.356-3.377 2.044-5.776 2.045 2.58-1.135 4.385-3.686 4.385-6.632 0-4.004-3.296-7.262-7.346-7.262-1.579 0-3.512 1.006-5.747 2.99-1.005.893-2.023 1.943-3.098 3.197l-.422.49-2.16-2.34.431-.48v-.001Zm-3.821 3.514c-.853 1.026-2.083 2.424-3.497 3.678-2.633 2.338-4.346 2.829-5.325 2.829-3.694 0-6.707-2.968-6.707-6.615 0-3.647 3.01-6.592 6.707-6.615.135 0 .297.014.493.05 1.905.74 3.607 1.92 4.635 2.874.827.766 2.324 2.335 3.693 3.799Zm2.174 3.298a35.382 35.382 0 0 1-3.09 3.144c-2.803 2.488-5.564 3.803-7.985 3.803-2.808 0-5.44-1.08-7.414-3.04A10.237 10.237 0 0 1 .922 8.62c.032-.093.42-1.165 1.522-2.208C3.877 5.057 5.82 4.368 8.219 4.368 5.64 5.503 3.834 8.054 3.834 11c0 4.005 3.296 7.262 7.346 7.262 1.58 0 3.512-1.006 5.747-2.99 1.006-.893 2.024-1.943 3.099-3.197l.42-.491 2.152 2.331-.423.491h.001Zm3.822-3.514c.852-1.026 2.082-2.424 3.496-3.678 2.634-2.338 4.346-2.829 5.325-2.829 3.694 0 6.707 2.968 6.707 6.615 0 3.647-3.01 6.592-6.707 6.615-.134 0-.296-.014-.494-.05l.004.002c-1.907-.74-3.61-1.922-4.639-2.876-.826-.766-2.324-2.335-3.693-3.799Zm19.69 2.673c.002-.004.003-.01.005-.012a.107.107 0 0 1-.005.012Z"/></svg>
