<svg xmlns="http://www.w3.org/2000/svg" width="52" height="52" fill="none">
  <g clip-path="url(#a)">
    <circle cx="26" cy="26" r="25.5" fill="#fff" stroke="#DBD9D6"/>
    <path fill="url(#b)" d="M34.91 17.77c-1.93 0-4.05.97-6.28 2.88a28.88 28.88 0 0 0-2.66 2.66s1.09 1.16 2.29 2.4c.64-.75 1.57-1.77 2.63-2.7 1.99-1.7 3.28-2.05 4.02-2.05a4.94 4.94 0 0 1 5.05 4.82c0 2.64-2.27 4.8-5.05 4.82-.12 0-.29-.02-.49-.06.81.34 1.68.59 2.52.59 5.1 0 6.1-3.26 6.16-3.5.16-.6.23-1.22.23-1.86 0-4.4-3.78-8-8.42-8Z"/>
    <path fill="url(#c)" d="M17.09 33.8c1.93 0 4.05-.97 6.28-2.89 1.06-.9 1.97-1.88 2.66-2.66l-2.29-2.39c-.64.75-1.57 1.77-2.63 2.69-1.99 1.7-3.28 2.06-4.02 2.06a4.95 4.95 0 0 1-5.05-4.83c0-2.64 2.27-4.8 5.05-4.82.12 0 .29.02.5.06a6.66 6.66 0 0 0-2.53-.59c-5.1 0-6.1 3.26-6.16 3.5-.15.6-.23 1.21-.23 1.85 0 4.42 3.78 8.02 8.42 8.02Z"/>
    <path fill="#29ABE2" d="M36.93 31.06c-2.62-.07-5.33-2.08-5.89-2.58-1.43-1.3-4.73-4.8-4.99-5.08-2.42-2.66-5.7-5.63-8.96-5.63h-.01a8.4 8.4 0 0 0-8.18 6.15c.06-.23 1.37-3.55 6.16-3.44 2.61.07 5.34 2.11 5.9 2.62 1.43 1.3 4.73 4.8 5 5.08 2.41 2.65 5.7 5.62 8.95 5.62h.01a8.4 8.4 0 0 0 8.19-6.15c-.08.23-1.39 3.52-6.18 3.4Z"/>
  </g>
  <defs>
    <linearGradient id="b" x1="30.53" x2="41.73" y1="18.82" y2="30.67" gradientUnits="userSpaceOnUse">
      <stop offset=".21" stop-color="#F15A24"/>
      <stop offset=".68" stop-color="#FBB03B"/>
    </linearGradient>
    <linearGradient id="c" x1="21.47" x2="10.27" y1="32.74" y2="20.9" gradientUnits="userSpaceOnUse">
      <stop offset=".21" stop-color="#ED1E79"/>
      <stop offset=".89" stop-color="#522785"/>
    </linearGradient>
    <clipPath id="a">
      <path fill="#fff" d="M0 26a26 26 0 1 1 52 0 26 26 0 0 1-52 0Z"/>
    </clipPath>
  </defs>
</svg>
